<?xml version="1.0" encoding="UTF-8"?><svg xmlns="http://www.w3.org/2000/svg" xmlns:xlink="http://www.w3.org/1999/xlink" viewBox="0 0 46.82 46.82"><defs><style>.cls-1{fill:none;}.cls-2{fill:#b3b3b3;opacity:.58;}.cls-2,.cls-3,.cls-4,.cls-5,.cls-6,.cls-7,.cls-8,.cls-9,.cls-10,.cls-11,.cls-12,.cls-13,.cls-14{mix-blend-mode:overlay;}.cls-3{opacity:.15;}.cls-3,.cls-4{fill:#999;}.cls-4{opacity:.42;}.cls-5{opacity:.21;}.cls-5,.cls-6,.cls-7,.cls-8,.cls-9{fill:#f2f2f2;}.cls-6,.cls-14{opacity:.19;}.cls-7{opacity:.3;}.cls-8{opacity:.17;}.cls-9{opacity:.4;}.cls-15{fill:url(#linear-gradient);}.cls-16{isolation:isolate;}.cls-17{clip-path:url(#clippath-1);}.cls-18{clip-path:url(#clippath-2);}.cls-19{fill:url(#radial-gradient);}.cls-19,.cls-20,.cls-21,.cls-22{mix-blend-mode:color-burn;}.cls-20{fill:url(#radial-gradient-3);}.cls-21{fill:url(#radial-gradient-2);}.cls-22{fill:url(#radial-gradient-4);}.cls-23{opacity:.6;}.cls-10{opacity:.1;}.cls-10,.cls-11,.cls-12,.cls-13,.cls-14{fill:#ccc;}.cls-24{clip-path:url(#clippath);}.cls-11{opacity:.37;}.cls-12{opacity:.59;}.cls-13{opacity:.63;}</style><clipPath id="clippath"><rect class="cls-1" y="0" width="46.74" height="46.74"/></clipPath><linearGradient id="linear-gradient" x1="129.42" y1="60.38" x2="5.14" y2="2.78" gradientUnits="userSpaceOnUse"><stop offset="0" stop-color="#743145"/><stop offset=".29" stop-color="#e3544d"/><stop offset=".56" stop-color="#fda752"/><stop offset=".61" stop-color="#fdac5d"/><stop offset=".7" stop-color="#fdbc7b"/><stop offset=".82" stop-color="#fed4ac"/><stop offset=".97" stop-color="#fef6ef"/><stop offset="1" stop-color="#fff"/></linearGradient><clipPath id="clippath-1"><rect class="cls-1" y="0" width="46.74" height="46.74"/></clipPath><clipPath id="clippath-2"><rect class="cls-1" y="0" width="100" height="47.13"/></clipPath><radialGradient id="radial-gradient" cx="-2236.17" cy="7200.61" fx="-2236.17" fy="7200.61" r="10.17" gradientTransform="translate(904.59 7243.42) rotate(138.19) scale(2.67 .82) skewX(5.34)" gradientUnits="userSpaceOnUse"><stop offset="0" stop-color="gray"/><stop offset=".3" stop-color="#a9a9a9"/><stop offset=".77" stop-color="#e6e6e6"/><stop offset="1" stop-color="#fff"/></radialGradient><radialGradient id="radial-gradient-2" cx="-2181.9" cy="6562.77" fx="-2181.9" fy="6562.77" r="31.88" gradientTransform="translate(514.92 -2382.03) rotate(-41.81) scale(1.09 .23) skewX(3.59)" xlink:href="#radial-gradient"/><radialGradient id="radial-gradient-3" cx="-2234.41" cy="7216.53" fx="-2234.41" fy="7216.53" r="10.17" xlink:href="#radial-gradient"/><radialGradient id="radial-gradient-4" cx="-2885.56" cy="4786.21" fx="-2885.56" fy="4786.21" r="31.88" gradientTransform="translate(-1325.75 2710) rotate(138.19) scale(1.09 .23) skewX(3.59)" xlink:href="#radial-gradient"/></defs><g class="cls-16"><g id="Layer_1"><g class="cls-24"><rect class="cls-15" y="0" width="100" height="47.13"/></g></g><g id="Layer_2"><g class="cls-17"><g class="cls-18"><path class="cls-19" d="M42.14,48.43c5.67-.64,15.34-6.11,24.24-14.06,8.9-7.96,14.33-16.01,14.11-20.24l-38.34,34.3Z"/><path class="cls-21" d="M84.84-9.21c-6.02,1.58-17.53,9.13-28.93,19.34-11.4,10.2-19.27,19.98-20.23,24.64L84.84-9.21Z"/><path class="cls-20" d="M26.91,44.44c5.67-.64,15.34-6.11,24.24-14.06,8.9-7.96,14.33-16.01,14.11-20.24L26.91,44.44Z"/><path class="cls-22" d="M35.89,42.9c6.02-1.58,17.53-9.13,28.93-19.34,11.4-10.2,19.27-19.98,20.23-24.64l-49.16,43.97Z"/><rect class="cls-6" x="17.51" y="26.88" width="7.87" height="7.78" transform="translate(30.52 -5.62) rotate(48.88)"/><rect class="cls-6" x="16.79" y="35.23" width="7.87" height="7.78" transform="translate(36.56 -2.22) rotate(48.88)"/><rect class="cls-6" x="5.57" y="38.29" width="4.02" height="3.97" transform="translate(32.93 8.08) rotate(48.88)"/><rect class="cls-5" x="24.13" y="26.13" width="16.35" height="16.15" transform="translate(36.83 -12.63) rotate(48.88)"/><rect class="cls-6" x="37.2" y="33.37" width="7.87" height="7.78" transform="translate(42.15 -18.23) rotate(48.88)"/><rect class="cls-11" x="32.39" y="9.99" width="7.87" height="7.78" transform="translate(22.89 -22.62) rotate(48.88)"/><rect class="cls-13" x="26.03" y=".43" width="7.87" height="7.78" transform="translate(13.51 -21.09) rotate(48.88)"/><rect class="cls-14" x="16.79" y="9.99" width="7.87" height="7.78" transform="translate(17.55 -10.86) rotate(48.88)"/><rect class="cls-4" x="-4.29" y="17.06" width="7.87" height="7.78" transform="translate(15.66 7.44) rotate(48.88)"/><rect class="cls-14" x="-3.77" y="35.84" width="7.87" height="7.78" transform="translate(29.99 13.47) rotate(48.88)"/><rect class="cls-14" x="29.1" y="25.2" width="7.87" height="7.78" transform="translate(33.22 -14.93) rotate(48.88)"/><rect class="cls-6" x="41.41" y="20.31" width="7.87" height="7.78" transform="translate(33.75 -25.87) rotate(48.88)"/><rect class="cls-6" x="36.65" y="21.03" width="5.56" height="5.49" transform="translate(31.41 -21.56) rotate(48.88)"/><rect class="cls-6" x="43.7" y="19.89" width="7.87" height="7.78" transform="translate(34.22 -27.75) rotate(48.88)"/><rect class="cls-6" x="33.36" y="8.46" width="16.97" height="16.76" transform="translate(27.01 -25.76) rotate(48.88)"/><rect class="cls-3" x="29.46" y="22.08" width="7.87" height="7.78" transform="translate(30.99 -16.27) rotate(48.88)"/><rect class="cls-6" x="24.19" y="36.92" width="7.87" height="7.78" transform="translate(40.37 -7.22) rotate(48.88)"/><rect class="cls-6" x="45.2" y="11.54" width="7.87" height="7.78" transform="translate(28.44 -31.73) rotate(48.88)"/><rect class="cls-6" x="9.16" y="22.08" width="7.87" height="7.78" transform="translate(24.04 -.98) rotate(48.88)"/><rect class="cls-6" x="3.65" y="36.52" width="7.87" height="7.78" transform="translate(33.03 8.12) rotate(48.88)"/><rect class="cls-6" x="18.38" y="16.99" width="4.69" height="4.63" transform="translate(21.64 -9) rotate(48.88)"/><rect class="cls-6" x="43" y="4.51" width="4.69" height="4.63" transform="translate(20.66 -31.82) rotate(48.87)"/><rect class="cls-6" x="24.89" y="20.93" width="4.69" height="4.63" transform="translate(26.83 -12.56) rotate(48.88)"/><rect class="cls-6" x="36.44" y="1.22" width="4.69" height="4.63" transform="translate(15.94 -28.01) rotate(48.87)"/><rect class="cls-6" x="19.52" y=".43" width="7.87" height="7.78" transform="translate(11.28 -16.19) rotate(48.88)"/><rect class="cls-6" x="-1.53" y="5.07" width="7.87" height="7.78" transform="translate(7.57 1.26) rotate(48.88)"/><rect class="cls-8" x="8.18" y="21.39" width="13.53" height="13.36" transform="translate(26.26 -1.64) rotate(48.88)"/><rect class="cls-7" x="14.68" y="8.33" width="13.53" height="13.36" transform="translate(18.65 -11.02) rotate(48.88)"/><rect class="cls-12" x="42.37" y="-6.83" width="13.53" height="13.36" transform="translate(16.71 -37.06) rotate(48.88)"/><rect class="cls-6" x="2.81" y="3" width="13.53" height="13.36" transform="translate(10.57 -3.9) rotate(48.88)"/><rect class="cls-2" x="27.84" y="11.12" width="7.87" height="7.78" transform="translate(22.18 -18.8) rotate(48.88)"/><rect class="cls-6" x="9.16" y="11.54" width="7.87" height="7.78" transform="translate(16.1 -4.59) rotate(48.88)"/><rect class="cls-10" x="-.75" y="25.83" width="7.87" height="7.78" transform="translate(23.48 7.77) rotate(48.88)"/><g class="cls-23"><rect class="cls-9" x="35.97" y="27.41" width="16.35" height="16.15" transform="translate(47.88 92) rotate(-132.57)"/><rect class="cls-6" x="31.31" y="28.77" width="7.87" height="7.78" transform="translate(35.03 80.71) rotate(-132.57)"/><rect class="cls-14" x="39.61" y="36.73" width="7.87" height="7.78" transform="translate(43.09 100.17) rotate(-132.57)"/><rect class="cls-6" x="27.43" y="41.93" width="7.87" height="7.78" transform="translate(18.85 99.91) rotate(-132.57)"/><rect class="cls-6" x="34.51" y="43.35" width="5.56" height="5.49" transform="translate(28.57 104.74) rotate(-132.57)"/><rect class="cls-6" x="25.15" y="42.41" width="7.87" height="7.78" transform="translate(14.66 99.04) rotate(-132.57)"/><rect class="cls-6" x="26.56" y="44.71" width="16.97" height="16.76" transform="translate(19.66 114.81) rotate(-132.57)"/><rect class="cls-3" x="39.33" y="39.86" width="7.87" height="7.78" transform="translate(40.32 105.21) rotate(-132.57)"/><rect class="cls-6" x="44.23" y="24.89" width="7.87" height="7.78" transform="translate(59.55 83.71) rotate(-132.57)"/><rect class="cls-6" x="47.15" y="44" width="4.69" height="4.63" transform="translate(48.86 114.1) rotate(-132.57)"/><rect class="cls-7" x="48.72" y="47.72" width="13.53" height="13.36" transform="translate(52.96 132.07) rotate(-132.57)"/></g></g></g></g></g></svg>