<svg preserveAspectRatio="none" width="100%" height="100%" overflow="visible" style="display: block;" viewBox="0 0 73.6 73.6" fill="none" xmlns="http://www.w3.org/2000/svg">
<g id="Icon" opacity="0.6">
<path id="Vector" d="M12.2666 15.9467C14.299 15.9467 15.9466 14.2991 15.9466 12.2667C15.9466 10.2343 14.299 8.58669 12.2666 8.58669C10.2342 8.58669 8.58663 10.2343 8.58663 12.2667C8.58663 14.2991 10.2342 15.9467 12.2666 15.9467Z" fill="var(--fill-0, #FF6B35)"/>
<path id="Vector_2" opacity="0.6" d="M36.8002 15.9467C38.8326 15.9467 40.4802 14.2991 40.4802 12.2667C40.4802 10.2343 38.8326 8.58669 36.8002 8.58669C34.7677 8.58669 33.1202 10.2343 33.1202 12.2667C33.1202 14.2991 34.7677 15.9467 36.8002 15.9467Z" fill="var(--fill-0, #FF6B35)"/>
<path id="Vector_3" opacity="0.3" d="M61.3334 15.9467C63.3658 15.9467 65.0134 14.2991 65.0134 12.2667C65.0134 10.2343 63.3658 8.58669 61.3334 8.58669C59.301 8.58669 57.6534 10.2343 57.6534 12.2667C57.6534 14.2991 59.301 15.9467 61.3334 15.9467Z" fill="var(--fill-0, #FF6B35)"/>
<path id="Vector_4" opacity="0.5" d="M12.2666 40.48C14.299 40.48 15.9466 38.8324 15.9466 36.8C15.9466 34.7676 14.299 33.12 12.2666 33.12C10.2342 33.12 8.58663 34.7676 8.58663 36.8C8.58663 38.8324 10.2342 40.48 12.2666 40.48Z" fill="var(--fill-0, #FF6B35)"/>
<path id="Vector_5" opacity="0.8" d="M36.8002 40.48C38.8326 40.48 40.4802 38.8324 40.4802 36.8C40.4802 34.7676 38.8326 33.12 36.8002 33.12C34.7677 33.12 33.1202 34.7676 33.1202 36.8C33.1202 38.8324 34.7677 40.48 36.8002 40.48Z" fill="var(--fill-0, #FF6B35)"/>
</g>
</svg>
