<svg preserveAspectRatio="none" width="100%" height="100%" overflow="visible" style="display: block;" viewBox="0 0 64 64" fill="none" xmlns="http://www.w3.org/2000/svg">
<g id="Icon" opacity="0.6">
<path id="Vector" d="M10.6667 13.8667C12.434 13.8667 13.8667 12.434 13.8667 10.6667C13.8667 8.89935 12.434 7.46667 10.6667 7.46667C8.89935 7.46667 7.46667 8.89935 7.46667 10.6667C7.46667 12.434 8.89935 13.8667 10.6667 13.8667Z" fill="var(--fill-0, #FF6B35)"/>
<path id="Vector_2" opacity="0.6" d="M32 13.8667C33.7673 13.8667 35.2 12.434 35.2 10.6667C35.2 8.89935 33.7673 7.46667 32 7.46667C30.2327 7.46667 28.8 8.89935 28.8 10.6667C28.8 12.434 30.2327 13.8667 32 13.8667Z" fill="var(--fill-0, #FF6B35)"/>
<path id="Vector_3" opacity="0.3" d="M53.3333 13.8667C55.1006 13.8667 56.5333 12.434 56.5333 10.6667C56.5333 8.89935 55.1006 7.46667 53.3333 7.46667C51.566 7.46667 50.1333 8.89935 50.1333 10.6667C50.1333 12.434 51.566 13.8667 53.3333 13.8667Z" fill="var(--fill-0, #FF6B35)"/>
<path id="Vector_4" opacity="0.5" d="M10.6667 35.2C12.434 35.2 13.8667 33.7673 13.8667 32C13.8667 30.2327 12.434 28.8 10.6667 28.8C8.89935 28.8 7.46667 30.2327 7.46667 32C7.46667 33.7673 8.89935 35.2 10.6667 35.2Z" fill="var(--fill-0, #FF6B35)"/>
<path id="Vector_5" opacity="0.8" d="M32 35.2C33.7673 35.2 35.2 33.7673 35.2 32C35.2 30.2327 33.7673 28.8 32 28.8C30.2327 28.8 28.8 30.2327 28.8 32C28.8 33.7673 30.2327 35.2 32 35.2Z" fill="var(--fill-0, #FF6B35)"/>
</g>
</svg>
