<?xml version="1.0" encoding="UTF-8"?><svg id="Layer_2" xmlns="http://www.w3.org/2000/svg" viewBox="0 0 2040.49 1661"><defs><style>.cls-1{fill:#e7d663;}.cls-1,.cls-2,.cls-3,.cls-4,.cls-5,.cls-6,.cls-7,.cls-8,.cls-9,.cls-10,.cls-11,.cls-12,.cls-13,.cls-14,.cls-15,.cls-16,.cls-17,.cls-18,.cls-19,.cls-20,.cls-21,.cls-22{fill-rule:evenodd;}.cls-2{fill:#a1af62;}.cls-3{fill:#28c5c2;}.cls-4{fill:#37bfad;}.cls-5{fill:#fe5f60;}.cls-6{fill:#47c8c3;}.cls-7{fill:#f7df79;}.cls-8{fill:#d8d773;}.cls-9{fill:#c6749c;}.cls-10{fill:#d6da73;}.cls-11{fill:#e7d15f;}.cls-12{fill:#a1ca7d;}.cls-13{fill:#3ae4df;}.cls-14{fill:#31dced;}.cls-15{fill:#24c2c0;}.cls-16{fill:#3ae0da;}.cls-17{fill:#2eb8bc;}.cls-18{fill:#49d2da;}.cls-19{fill:#f7c45e;}.cls-20{fill:#26c4be;}.cls-21{fill:#4aedf5;}.cls-22{fill:#6c9cd1;}</style></defs><g id="Layer_1-2"><path class="cls-22" d="M642.17,909.22c-194.53-36.73-341.81-207.64-341.81-412.8,0-14.17.71-28.11,2.13-41.93C127.68,505.28,0,666.74,0,857.84c0,231.97,188.03,420.12,420.12,420.12,104.77,0,200.55-38.39,274.14-101.81-37.79-55.04-60-121.77-60-193.58,0-25.15,2.72-49.72,7.91-73.35h0Z"/><path class="cls-17" d="M300.36,496.42c0,205.16,147.29,376.06,341.81,412.8,20.67-94.61,80.67-174.57,161.93-221.93-65.43-147.05-212.72-249.45-383.98-249.45-40.87,0-80.31,5.79-117.64,16.65-1.42,13.82-2.13,27.75-2.13,41.93h0Z"/><path class="cls-6" d="M420.12,437.84c171.26,0,318.55,102.4,383.98,249.45,28.11-16.42,58.82-28.93,91.3-36.85-43.47-66.14-68.74-145.28-68.74-230.32,0-109.49,41.81-209.06,110.32-283.82-63.19-38.03-137.36-60-216.5-60-217.92,0-396.97,165.83-417.99,378.19,37.32-10.87,76.77-16.65,117.64-16.65h0Z"/><path class="cls-4" d="M936.97,136.31c-68.5,74.76-110.32,174.33-110.32,283.82,0,85.04,25.28,164.17,68.74,230.32,25.86-6.26,52.8-9.57,80.55-9.57,45.59,0,89.17,8.98,128.98,25.15,22.91-51.85,35.67-109.25,35.67-169.61,0-152.83-81.62-286.54-203.62-360.12h0Z"/><path class="cls-12" d="M936.97,136.31c122.01,73.58,203.62,207.29,203.62,360.12,0,60.36-12.76,117.76-35.67,169.61,38.98,15.95,74.53,38.86,104.77,67.33,2.72-4.37,5.55-8.74,8.39-12.99-11.58-38.39-17.72-79.13-17.72-121.3,0-222.28,172.56-404.29,391.07-419.18C1515.48,71.1,1389.46,0,1246.78,0c-122.72,0-233.03,52.56-309.81,136.31h0Z"/><path class="cls-1" d="M1591.43,179.88c-218.51,14.88-391.07,196.89-391.07,419.18,0,42.17,6.14,82.92,17.72,121.3,75.35-112.44,203.62-186.5,349.14-186.5,27.99,0,55.28,2.71,81.73,7.91,11.57-38.5,17.83-79.37,17.83-121.65,0-89.29-27.87-172.09-75.35-240.24h0Z"/><path class="cls-7" d="M1666.78,420.12c0,42.28-6.26,83.15-17.83,121.65,152.95,30.12,276.14,143.39,320.55,290.79,44.88-66.73,70.99-147.05,70.99-233.51,0-232.09-188.15-420.12-420.12-420.12-9.68,0-19.37.35-28.94.94,47.48,68.15,75.35,150.95,75.35,240.24h0Z"/><path class="cls-19" d="M1969.5,832.57c-44.41-147.4-167.6-260.67-320.55-290.79-48.66,160.63-190.75,280.63-363.07,296.58,4.49,9.81,8.62,19.84,12.28,30.24,77.13,92,192.76,150.47,322.21,150.47,145.51,0,273.78-74.06,349.14-186.5h0Z"/><path class="cls-11" d="M1285.88,838.35c172.33-15.94,314.41-135.94,363.07-296.58-26.46-5.2-53.74-7.91-81.73-7.91-145.51,0-273.78,74.05-349.14,186.5,3.42,11.34,7.32,22.44,11.69,33.43,22.56,25.04,41.58,53.5,56.1,84.56h0Z"/><path class="cls-10" d="M1285.88,838.35c-14.53-31.06-33.54-59.53-56.1-84.56,12.05,30.35,27.52,58.94,45.95,85.39,3.31-.24,6.73-.47,10.16-.83h0Z"/><path class="cls-2" d="M1209.69,733.36c6.97,6.49,13.7,13.35,20.08,20.43-4.37-10.99-8.27-22.09-11.69-33.43-2.84,4.25-5.67,8.62-8.39,12.99h0Z"/><path class="cls-8" d="M1285.88,838.35c-3.42.36-6.85.59-10.16.83,7.09,10.16,14.53,19.96,22.44,29.41-3.66-10.4-7.79-20.43-12.28-30.24h0Z"/><path class="cls-18" d="M1298.16,868.59c-7.92-9.45-15.35-19.25-22.44-29.41-9.57.59-19.25.94-28.94.94-27.99,0-55.28-2.72-81.73-7.91-11.58,38.51-17.83,79.37-17.83,121.77,0,95.44,31.89,183.55,85.51,254.05,52.91-60.12,84.92-139.01,84.92-225.47,0-39.92-6.85-78.3-19.49-113.97h0Z"/><path class="cls-16" d="M1246.78,840.13c9.68,0,19.37-.35,28.94-.94-18.42-26.46-33.9-55.04-45.95-85.39-6.38-7.09-13.11-13.94-20.08-20.43-18.9,30.59-34.02,63.78-44.65,98.86,26.46,5.2,53.74,7.91,81.73,7.91h0Z"/><path class="cls-13" d="M1165.05,832.21c10.63-35.08,25.75-68.27,44.65-98.86-30.24-28.47-65.79-51.38-104.77-67.33-18.66,42.17-44.06,80.67-74.64,114.1,40.87,24.69,86.34,42.52,134.76,52.09h0Z"/><path class="cls-20" d="M1030.28,780.13c30.59-33.42,55.98-71.93,74.64-114.1-39.8-16.18-83.38-25.15-128.98-25.15-27.76,0-54.69,3.3-80.55,9.57,34.6,52.68,80.79,97.09,134.88,129.68h0Z"/><path class="cls-3" d="M1030.28,780.13c-54.1-32.6-100.28-77.01-134.88-129.68-32.48,7.91-63.19,20.43-91.3,36.85,23.15,52.09,36.02,109.84,36.02,170.55,0,14.17-.71,28.11-2.01,41.93,74.76-21.73,140.9-63.78,192.17-119.65h0Z"/><path class="cls-15" d="M840.12,857.84c0-60.71-12.87-118.47-36.02-170.55-81.26,47.36-141.26,127.32-161.93,221.93,25.39,4.73,51.5,7.21,78.31,7.21,40.87,0,80.32-5.79,117.64-16.65,1.3-13.82,2.01-27.76,2.01-41.93h0Z"/><path class="cls-14" d="M838.12,899.77c-37.32,10.87-76.77,16.65-117.64,16.65-26.81,0-52.91-2.48-78.31-7.21-5.2,23.62-7.91,48.19-7.91,73.35,0,71.81,22.21,138.54,60,193.58,79.37-68.5,132.88-166.18,143.86-276.38h0Z"/><path class="cls-21" d="M838.12,899.77c-10.98,110.2-64.49,207.88-143.86,276.38,61.65,89.41,164.77,148.11,281.7,148.11,102.4,0,194.17-44.89,256.77-116.22-53.62-70.51-85.51-158.62-85.51-254.05,0-42.4,6.26-83.27,17.83-121.77-48.43-9.57-93.9-27.4-134.76-52.09-51.26,55.87-117.4,97.92-192.17,119.65h0Z"/><path class="cls-5" d="M1317.65,982.57c0,86.46-32.01,165.36-84.92,225.47,76.77,100.87,198.07,165.95,334.49,165.95,232.09,0,420.12-188.03,420.12-420,0-42.17-6.26-82.91-17.83-121.42-75.35,112.44-203.62,186.5-349.14,186.5-129.45,0-245.08-58.47-322.21-150.47,12.64,35.67,19.49,74.05,19.49,113.97h0Z"/><path class="cls-9" d="M1814.89,1394.42c-73.58,0-133.23,59.65-133.23,133.23s59.65,133.35,133.23,133.35,133.35-59.64,133.35-133.35-59.76-133.23-133.35-133.23h0Z"/></g></svg>