<?xml version="1.0" encoding="UTF-8"?><svg id="Layer_2" xmlns="http://www.w3.org/2000/svg" viewBox="0 0 245.39 274.46"><g id="_ëÎÓÈ_1"><path d="M103.1,100.24c14.25-8.92,33.54,2.5,30.3,19.8-3.2,17.1-25.61,21.25-35.46,7.44-2.22-3.12-7.43-.12-5.18,3.03,12.73,17.86,41.8,13.59,46.42-8.87,4.57-22.23-20.34-38.33-39.12-26.57-3.27,2.04-.26,7.24,3.03,5.18h0Z"/><path d="M154.19,168.87c-2.93-2.44-5.86-4.88-8.8-7.31-1.03-.86-2.42-1.19-3.64-.47-5.87,3.49-12.01,5.83-18.72,7.12-.91.18-1.95,1.15-2.1,2.1-.49,3.28-.3,7.91-1.64,10.91-1.74,3.89-7.26,2-10.55,1.73s-9.57.66-10.58-3.22c-.82-3.18.15-7.72.22-11.03.03-1.41-.97-2.43-2.2-2.89-6.11-2.29-11.64-5.55-16.6-9.8-1.03-.88-2.42-1.17-3.64-.47-2.86,1.65-6.37,4.72-9.54,5.52-3.73.95-5.87-4.76-7.63-7.39-1.52-2.27-6.27-6.97-4.42-9.98,1.58-2.57,6.32-4.84,8.75-6.71,1.03-.79,1.82-2.02,1.38-3.39-2.13-6.55-3.05-13.12-2.8-20,.05-1.43-.99-2.41-2.2-2.89-2.88-1.14-7.99-2.01-10.26-4.05-2.69-2.41.59-8.1,1.44-10.77.96-2.99,1.53-9.14,5.27-9.27,3.26-.11,7.51,1.89,10.7,2.69,1.35.34,2.64-.24,3.39-1.38,3.61-5.44,8.01-10.11,13.26-13.99,1.06-.78,1.8-2.03,1.38-3.39-.98-3.18-3.14-7.26-3.24-10.56-.12-4.03,6.23-4.87,9.26-6.01s7.9-4.49,10.62-1.29c2.12,2.49,3.2,7.04,4.57,10.04.4.88,1.64,1.57,2.59,1.49,6.79-.57,13.33-.04,19.92,1.7,1.36.36,2.62-.26,3.39-1.38,1.78-2.61,3.73-7.26,6.23-9.12,3-2.23,7.64,2.16,10.14,3.64s8.84,3.64,8.02,7.15c-.76,3.28-3.47,6.82-5,9.84-.62,1.22-.49,2.63.47,3.64,4.71,4.95,8.31,10.46,11.06,16.71.39.88,1.65,1.56,2.59,1.49,3.26-.24,7.84-1.51,11-.82,4.02.88,3.48,6.88,3.92,10.04.46,3.32,2.8,9.12-.96,10.93-3.03,1.46-7.51,1.55-10.82,2.23-.91.19-1.96,1.15-2.1,2.1-.93,6.75-2.86,13.05-6.02,19.1-.64,1.23-.47,2.62.47,3.64l5.16,5.56c2.1,2.27,3.85,3.56,1.63,6.38-1.96,2.49-4.45,4.7-6.62,6.99-1.57,1.66-4.38,6.29-7.38,4.39-3.27-2.08-6.28,3.11-3.03,5.18,4.47,2.84,8.44,1.11,11.8-2.32s6.68-6.82,9.82-10.37c6.93-7.83-1.92-14.42-7.15-20.05l.47,3.64c3.39-6.49,5.63-13.27,6.63-20.53l-2.1,2.1c4.31-.89,10.52-1.02,14.16-3.72,4.98-3.69,2.66-10.73,1.94-15.85-.7-5.03-.34-12.32-5.84-14.75-4.24-1.87-10.57-.18-15.01.15l2.59,1.49c-2.95-6.7-6.96-12.62-12-17.92l.47,3.64c2.02-3.97,5.83-8.96,6.07-13.52.34-6.37-6.69-8.98-11.24-11.68s-9.86-7.36-15.17-4.53c-4.13,2.2-6.87,8.46-9.41,12.16l3.39-1.38c-7.09-1.86-14.21-2.53-21.52-1.91l2.59,1.49c-1.8-3.97-3.3-10.06-6.77-12.95-4.81-4-11.25-.06-16.12,1.79s-11.74,3.09-12.81,8.98c-.83,4.56,2.21,10.36,3.52,14.63l1.38-3.39c-6.12,4.53-11.21,9.79-15.42,16.14l3.39-1.38c-4.34-1.09-10.03-3.69-14.55-2.86-6.2,1.14-7.18,8.62-8.79,13.62s-4.97,11.2-.96,15.76c3.07,3.49,9.81,4.79,13.97,6.43l-2.2-2.89c-.27,7.39.73,14.57,3.01,21.6l1.38-3.39c-3.53,2.7-9.05,5.54-11.36,9.45-3.31,5.61,1.91,11.01,4.87,15.44,2.79,4.17,5.69,10.88,11.58,10.82,4.69-.05,9.93-4.56,13.8-6.8l-3.64-.47c5.79,4.95,12.11,8.67,19.25,11.34l-2.2-2.89c-.09,4.41-1.32,10.47.46,14.65,2.45,5.75,9.73,5.08,14.92,5.51s12.11,2.4,15.75-2.34c2.81-3.66,2.55-10.24,3.21-14.61l-2.1,2.1c7.18-1.39,13.87-3.98,20.15-7.72l-3.64-.47c2.93,2.44,5.86,4.88,8.8,7.31s7.22-1.77,4.24-4.24Z"/><path d="M29.26,249.96c5.59-8.64,7.87-18.59,9-28.7,1.53-13.76,1.7-27.56-3.78-40.5-4.71-11.11-12.35-20.62-18.34-31.02-3.82-6.64-7.23-13.72-9.28-21.13-1.69-6.08-1.01-13.47-.55-19.72C9.97,59.18,48.28,17.29,97.01,7.9c49.74-9.59,106.05,18.68,118.51,69.75,1.78,7.3,2.71,14.77,2.98,22.28.13,3.7.59,7.89-.9,11.37-1.11,2.58-2.93,4.76-3.88,7.43-3.19,8.99,2.95,18.11,8.11,24.99,3.31,4.41,6.9,8.6,10.3,12.95,2.58,3.3,5.95,7.2,6.94,11.38,1.19,4.99-4.34,5.16-8.02,5.68-4.38.62-9.04,1.67-11.12,6.03-2.34,4.92-.9,11.42-.06,16.54.36,2.17,1.15,4.55.53,6.7-.9,3.14-3.79,6.1-5.68,8.69-3.62,4.97-4.94,8.78-2.87,14.75,1.19,3.43,2.55,6.58,1.31,10.26-1.31,3.88-4.83,7-8.2,9.12-12.62,7.91-25.61.78-37.99-3.69-7.72-2.79-17.45-2.43-16.18,8.3.84,7.09,2.43,13.13.49,20.29-1.01,3.73,4.77,5.32,5.79,1.6,1.91-7.05,1.21-13.51-.02-20.58-.28-1.59-1.15-4.18.41-5.26s4.93.43,6.42.91c11.81,3.89,23.64,10.86,36.48,7.09,6.06-1.78,11.92-5.64,15.67-10.74,4.31-5.84,4.1-11.71,1.82-18.3-1.3-3.75-1.4-5.87.92-9.19,1.88-2.71,4.05-5.24,5.71-8.1,2.86-4.91,1.91-8.72,1.06-14.07-.49-3.09-1.1-6.46-.69-9.6.46-3.49,2.65-4.12,5.8-4.68,4.3-.77,9.48-.71,12.58-4.34,5.95-6.97-1.95-16.71-6.22-22.21-6.18-7.96-15.74-16.63-17.91-26.87-1.22-5.72,2.97-9.29,4.59-14.38,2.16-6.76.84-15.3.02-22.23-3.1-26.3-15.5-49.72-36.61-65.91C166.94,8.43,141.58-.23,116.13,0,67.02.46,21.87,33.52,6.11,79.94,1.94,92.21-.08,105.24,0,118.19c.05,7.65,1.37,13.91,4.28,21.01,2.59,6.32,5.82,12.33,9.42,18.14,6.63,10.71,14.62,20.9,17.86,33.29,1.96,7.52,1.8,15.18,1.35,22.87-.41,7.04-1.19,14.12-3.15,20.92-1.28,4.46-3.16,8.61-5.68,12.5-2.1,3.25,3.09,6.26,5.18,3.03h0Z"/></g></svg>