<?xml version="1.0" encoding="UTF-8"?><svg id="Layer_2" xmlns="http://www.w3.org/2000/svg" xmlns:xlink="http://www.w3.org/1999/xlink" viewBox="0 0 244.54 310"><defs><style>.cls-1{fill:none;}.cls-2{fill:#243642;}.cls-3{clip-path:url(#clippath);}</style><clipPath id="clippath"><rect class="cls-1" y="0" width="244.54" height="310"/></clipPath></defs><g id="Layer_1-2"><g class="cls-3"><path class="cls-2" d="M143.58,142.12c-23.11.66-18.86-23.88-27.86-30.57-21.59-16.05-52.03-2.11-67.92-18.34-5.13-5.23-9.52-10.21-10.19-16.99-1.63-16.41,2.18-23.53,10.31-32.13,21.74-22.97,49.72-27.8,69.41-27.8,52.96.39,71.43,16.2,85.92,32.35,23.86,26.65,25.34,49.61,24.98,57.89.04,1.01.25,1.96.25,2.98.01,30.37-22.81,54.07-50.93,55.03-19.69.66-20.68-12.48-29.91-22.7-1.36.09-2.66.22-4.05.27h0ZM202.27,231.49s-11.34-25.61,11.77-58.79c0,0,28.95-38.2,29.82-59.21.01-.01,7.66-35.39-28.48-75.7C198.03,18.41,175.07.42,118.36,0c-22.16-.17-55.97,5.06-82.29,32.89-15.92,16.82-27.68,38.04-24.31,72.75.73,7.53,11.47,16.24,3.91,30.8,0,0-16.22,28.55-15.66,33.31,0,0-.29,8.69,13.15,8.96,0,0,3.36.43,2.39,7.84l-.15,10.79s.42,3.24,6.3,5.18c0,0,1.11,1.11-.55,3.24,0,0-3.11,3.45,2.22,10.91,1.98,2.73,5.17,6.17,3.21,13.15,0,0-2.51,13.58,2.8,16.8,0,0,6.05,7.18,30.37,4.18,8.49-1.04,24.22-5.16,33.59,6.59,0,0,22.38,42.53,24.08,52.62h0c.04-.07,38.25-68.01,84.83-78.51h0Z"/></g></g></svg>