<?xml version="1.0" encoding="UTF-8"?><svg id="Layer_2" xmlns="http://www.w3.org/2000/svg" viewBox="0 0 240.89 256.12"><g id="_ëÎÓÈ_1"><path d="M237.89,177.17H3c-3.86,0-3.87,6,0,6h234.89c3.86,0,3.87-6,0-6h0Z"/><path d="M226.62,30.6v149.57c0,3.86,6,3.87,6,0V30.6c0-3.86-6-3.87-6,0h0Z"/><path d="M237.89,11.38H3c-1.62,0-3,1.37-3,3v16.21c0,1.62,1.37,3,3,3h234.89c1.62,0,3-1.37,3-3V14.38c0-3.86-6-3.87-6,0v16.21l3-3H3l3,3V14.38l-3,3h234.89c3.86,0,3.87-6,0-6Z"/><path d="M14.27,180.17V30.6c0-3.86-6-3.87-6,0v149.57c0,3.86,6,3.87,6,0h0Z"/><path d="M117.44,2.9v11.48c0,3.86,6,3.87,6,0V2.9c0-3.86-6-3.87-6,0h0Z"/><path d="M154.25,180.17v18.93l3-3h-73.61l3,3v-18.93c0-3.86-6-3.87-6,0v18.93c0,1.62,1.37,3,3,3h73.61c1.62,0,3-1.37,3-3v-18.93c0-3.86-6-3.87-6,0h0Z"/><path d="M97.47,198.31c-3.95,18.02-7.91,36.05-11.86,54.07-.83,3.76,4.96,5.37,5.79,1.6,3.95-18.02,7.91-36.05,11.86-54.07.83-3.76-4.96-5.37-5.79-1.6h0Z"/><path d="M137.63,199.9c3.95,18.02,7.91,36.05,11.86,54.07.83,3.77,6.61,2.17,5.79-1.6-3.95-18.02-7.91-36.05-11.86-54.07-.83-3.77-6.61-2.17-5.79,1.6h0Z"/><path d="M93.37,233.99h54.34c3.86,0,3.87-6,0-6h-54.34c-3.86,0-3.87,6,0,6h0Z"/><path d="M98.92,79.95c6.71-6.71,13.43-13.43,20.14-20.14,2.73-2.73-1.51-6.98-4.24-4.24-6.71,6.71-13.43,13.43-20.14,20.14-2.73,2.73,1.51,6.98,4.24,4.24h0Z"/><path d="M98.92,79.95c6.71-6.71,13.43-13.43,20.14-20.14,2.73-2.73-1.51-6.98-4.24-4.24-6.71,6.71-13.43,13.43-20.14,20.14-2.73,2.73,1.51,6.98,4.24,4.24h0Z"/><path d="M94.68,59.81c6.71,6.71,13.43,13.43,20.14,20.14,2.73,2.73,6.98-1.51,4.24-4.24-6.71-6.71-13.43-13.43-20.14-20.14-2.73-2.73-6.98,1.51-4.24,4.24h0Z"/><path d="M53.22,120.68c6.71-6.71,13.43-13.43,20.14-20.14,2.73-2.73-1.51-6.98-4.24-4.24-6.71,6.71-13.43,13.43-20.14,20.14-2.73,2.73,1.51,6.98,4.24,4.24h0Z"/><path d="M53.22,120.68c6.71-6.71,13.43-13.43,20.14-20.14,2.73-2.73-1.51-6.98-4.24-4.24-6.71,6.71-13.43,13.43-20.14,20.14-2.73,2.73,1.51,6.98,4.24,4.24h0Z"/><path d="M48.98,100.54c6.71,6.71,13.43,13.43,20.14,20.14,2.73,2.73,6.98-1.51,4.24-4.24-6.71-6.71-13.43-13.43-20.14-20.14-2.73-2.73-6.98,1.51-4.24,4.24h0Z"/><path d="M145.8,120.34c-.68,14.38-22.44,14.53-22.47,0s21.79-14.39,22.47,0c.18,3.84,6.18,3.87,6,0-.44-9.35-7.53-17.24-17.24-17.24s-17.24,7.87-17.24,17.24,7.87,17.24,17.24,17.24,16.79-7.88,17.24-17.24c.18-3.86-5.82-3.85-6,0Z"/><path d="M95.11,161.05h61.13c12.8,0,24.53-3.54,32.04-14.79,6.48-9.7,5.42-21.03,5.42-32.08v-34.27c0-3.86-6-3.87-6,0v26.62c0,9.31,1.57,20.61-1.22,29.66s-10.4,16.02-19.59,18.18c-3.43.8-6.9.68-10.38.68h-61.39c-3.86,0-3.87,6,0,6h0Z"/><path d="M206.84,89.21c-4.68-3.81-9.35-7.61-14.03-11.42-1.36-1.11-2.87-1.11-4.24,0-4.68,3.81-9.35,7.61-14.03,11.42-3,2.44,1.27,6.66,4.24,4.24l14.03-11.42h-4.24c4.68,3.81,9.35,7.61,14.03,11.42,2.97,2.42,7.24-1.8,4.24-4.24h0Z"/></g></svg>