<?xml version="1.0" encoding="utf-8"?>
<!-- Generator: Adobe Illustrator 22.0.1, SVG Export Plug-In . SVG Version: 6.00 Build 0)  -->
<svg version="1.1" id="Layer_1" xmlns="http://www.w3.org/2000/svg" xmlns:xlink="http://www.w3.org/1999/xlink" x="0px" y="0px"
	 viewBox="0 0 68 68" style="enable-background:new 0 0 68 68;" xml:space="preserve">
<g>
	<path d="M61.3466988,14.7874479c0-2.3999977-1.9599609-4.3599968-4.3699951-4.3599968H11.0267506
		c-2.4099731,0-4.3699946,1.9599991-4.3699946,4.3599968v33.3899994h54.6899414V14.7874479z M11.1867847,16.6524506
		c0-0.9399996,0.7650146-1.7039995,1.7039795-1.7039995h42.2280273c0.9399414,0,1.7049561,0.7639999,1.7049561,1.7039995v5.651001
		c0,0.2080002-0.1679688,0.375-0.375,0.375H11.5617847c-0.2070313,0-0.375-0.1669998-0.375-0.375V16.6524506z
		 M56.8268013,43.6574478c0,0.9400024-0.7700195,1.7000008-1.710083,1.7000008H12.8867359
		c-0.9399414,0-1.6999512-0.7599983-1.6999512-1.7000008V23.3574524c0.1199951,0.0499992,0.25,0.0699997,0.3800049,0.0699997
		h44.8800049c0.1300049,0,0.2598877-0.0200005,0.3800049-0.0699997V43.6574478z"/>
	<path d="M65.978653,49.8115501c-0.3580322-0.5569992-0.9639893-0.8889999-1.6219482-0.8889999H3.6466851
		c-0.6569824,0-1.2639771,0.3320007-1.6220093,0.8889999c-0.3569947,0.5540009-0.4089967,1.2389984-0.1579591,1.7819977
		l0.8689576,2.9300003c0.8440552,1.8520012,2.6940308,3.0489998,4.7109985,3.0489998h53.0999756
		c2.0169678,0,3.865963-1.1969986,4.7290001-3.0979996l0.8540039-2.8569984
		C66.3866119,51.0315514,66.3307037,50.358551,65.978653,49.8115501 M49.2527046,54.9235497
		c-0.7960205,0-1.4370117-0.6399994-1.4370117-1.4370003c0-0.7890015,0.6409912-1.4360008,1.4370117-1.4360008
		c0.7889404,0,1.4370117,0.6469994,1.4370117,1.4360008C50.6897163,54.2835503,50.0416451,54.9235497,49.2527046,54.9235497
		 M53.9786568,54.9235497c-0.7960205,0-1.4370117-0.6399994-1.4370117-1.4370003
		c0-0.7890015,0.6409912-1.4360008,1.4370117-1.4360008c0.7890625,0,1.4370117,0.6469994,1.4370117,1.4360008
		C55.4156685,54.2835503,54.7677193,54.9235497,53.9786568,54.9235497 M58.704731,54.9235497
		c-0.7960205,0-1.4370117-0.6399994-1.4370117-1.4370003c0-0.7890015,0.6409912-1.4360008,1.4370117-1.4360008
		c0.7889404,0,1.4368896,0.6469994,1.4368896,1.4360008C60.1416206,54.2835503,59.4936714,54.9235497,58.704731,54.9235497"/>
	<path d="M15.746233,20.2502518c0.7889404,0,1.4368896-0.6399994,1.4368896-1.4369965
		c0-0.7890015-0.6479492-1.4370003-1.4368896-1.4370003c-0.7960205,0-1.4370117,0.6479988-1.4370117,1.4370003
		C14.3092213,19.6102524,14.9502125,20.2502518,15.746233,20.2502518"/>
	<path d="M20.4723072,20.2502518c0.7889404,0,1.4368896-0.6399994,1.4368896-1.4369965
		c0-0.7890015-0.6479492-1.4370003-1.4368896-1.4370003c-0.7971191,0-1.4370117,0.6479988-1.4370117,1.4370003
		C19.0352955,19.6102524,19.6751881,20.2502518,20.4723072,20.2502518"/>
	<path d="M25.1978931,20.2502518c0.7889404,0,1.4368896-0.6399994,1.4368896-1.4369965
		c0-0.7890015-0.6479492-1.4370003-1.4368896-1.4370003c-0.7960205,0-1.4370117,0.6479988-1.4370117,1.4370003
		C23.7608814,19.6102524,24.4018726,20.2502518,25.1978931,20.2502518"/>
	<path d="M29.9693775,25.2424507H14.3112965c-0.2070313,0-0.375,0.1680031-0.375,0.375c0,0.2070007,0.1679688,0.375,0.375,0.375
		h15.6580811c0.2069092,0,0.375-0.1679993,0.375-0.375C30.3443775,25.4104538,30.1762867,25.2424507,29.9693775,25.2424507"/>
	<path d="M29.9693775,29.1237488H14.3112965c-0.2070313,0-0.375,0.1680031-0.375,0.375c0,0.2070007,0.1679688,0.375,0.375,0.375
		h15.6580811c0.2069092,0,0.375-0.1679993,0.375-0.375C30.3443775,29.2917519,30.1762867,29.1237488,29.9693775,29.1237488"/>
	<path d="M29.9693775,33.0055504H14.3112965c-0.2070313,0-0.375,0.1680031-0.375,0.375c0,0.2070007,0.1679688,0.375,0.375,0.375
		h15.6580811c0.2069092,0,0.375-0.1679993,0.375-0.375C30.3443775,33.1735535,30.1762867,33.0055504,29.9693775,33.0055504"/>
	<path d="M29.9693775,36.8874512H14.3112965c-0.2070313,0-0.375,0.1680031-0.375,0.375c0,0.2070007,0.1679688,0.375,0.375,0.375
		h15.6580811c0.2069092,0,0.375-0.1679993,0.375-0.375C30.3443775,37.0554543,30.1762867,36.8874512,29.9693775,36.8874512"/>
	<path d="M29.9693775,40.769249H14.3112965c-0.2070313,0-0.375,0.1680031-0.375,0.375c0,0.2070007,0.1679688,0.375,0.375,0.375
		h15.6580811c0.2069092,0,0.375-0.1679993,0.375-0.375C30.3443775,40.937252,30.1762867,40.769249,29.9693775,40.769249"/>
	<path d="M42.1573677,26.4270515c-3.9110107,0-7.0900879,3.1809998-7.0900879,7.1009979
		c0,3.9099998,3.1790771,7.0890007,7.0900879,7.0890007c3.9189453,0,7.0999756-3.1790009,7.0999756-7.0890007
		C49.2573433,29.6080513,46.076313,26.4270515,42.1573677,26.4270515 M45.3863716,36.2170486
		c0.1459961,0.1460037,0.1459961,0.3840027,0,0.5300026c-0.0731201,0.0739975-0.1690674,0.1100006-0.2650146,0.1100006
		c-0.0960693,0-0.1920166-0.0360031-0.2650146-0.1100006l-2.6950684-2.6949997l-2.6939697,2.6949997
		c-0.072998,0.0739975-0.1689453,0.1100006-0.2650146,0.1100006c-0.0959473,0-0.1920166-0.0360031-0.2650146-0.1100006
		c-0.1469727-0.1459999-0.1469727-0.3839989,0-0.5300026l2.6940918-2.6949997l-2.6940918-2.6940002
		c-0.1469727-0.1469994-0.1469727-0.3839989,0-0.5299988c0.1459961-0.1469994,0.3840332-0.1469994,0.5300293,0l2.6939697,2.6940002
		l2.6950684-2.6940002c0.1459961-0.1469994,0.3839111-0.1469994,0.5300293,0c0.1459961,0.1459999,0.1459961,0.3829994,0,0.5299988
		l-2.6940918,2.6940002L45.3863716,36.2170486z"/>
</g>
</svg>
