<?xml version="1.0" encoding="UTF-8"?><svg id="Layer_2" xmlns="http://www.w3.org/2000/svg" viewBox="0 0 27.7 27.7"><g id="Layer_3"><path d="M27.6,7.1V2.3c0-1.2-1-2.3-2.3-2.3H2.3C1.1,0,0,1,0,2.3v4.8h27.6ZM22.8,3.1c.4,0,.8.3.8.8s-.3.8-.8.8c-.4,0-.8-.3-.8-.8s.4-.8.8-.8ZM19.8,3.1c.4,0,.8.3.8.8s-.3.8-.8.8c-.4,0-.8-.3-.8-.8s.4-.8.8-.8ZM16.8,3.1c.4,0,.8.3.8.8s-.3.8-.8.8c-.4,0-.8-.3-.8-.8s.4-.8.8-.8Z"/><path d="M.1,8.6v16.8c0,1.2,1,2.3,2.3,2.3h23c1.2,0,2.3-1,2.3-2.3V8.6H.1ZM9.3,20.3c.3.3.3.8,0,1.1-.3.3-.8.3-1.1,0l-3-3c-.3-.3-.3-.8,0-1.1l3-3c.3-.3.8-.3,1.1,0s.3.8,0,1.1l-2.4,2.4,2.4,2.5ZM16.5,14.1l-4,8c-.2.4-.6.5-1,.3s-.5-.6-.3-1l4-8c.2-.4.6-.5,1-.3.3.2.5.7.3,1ZM22.3,18.3l-3,3c-.3.3-.8.3-1.1,0-.3-.3-.3-.8,0-1.1l2.5-2.5-2.5-2.5c-.3-.3-.3-.8,0-1.1s.8-.3,1.1,0l3,3c.3.5.3.9,0,1.2Z"/></g></svg>