<?xml version="1.0" encoding="UTF-8"?><svg id="Layer_2" xmlns="http://www.w3.org/2000/svg" viewBox="0 0 597.09 597.09"><defs><style>.cls-1{fill:#f03d01;}.cls-2{fill:#f07654;}</style></defs><g id="Layer_1-2"><path class="cls-1" d="M594.93,153.04V49.58c0-25.87-21.56-49.58-49.58-49.58H49.58C23.71,0,0,21.56,0,49.58v103.47h594.93ZM491.47,66.82c8.62,0,17.24,6.47,17.24,17.24s-6.47,17.24-17.24,17.24c-8.62,0-17.24-6.47-17.24-17.24s8.62-17.24,17.24-17.24ZM426.8,66.82c8.62,0,17.24,6.47,17.24,17.24s-6.47,17.24-17.24,17.24c-8.62,0-17.24-6.47-17.24-17.24s8.62-17.24,17.24-17.24ZM362.13,66.82c8.62,0,17.24,6.47,17.24,17.24s-6.47,17.24-17.24,17.24c-8.62,0-17.24-6.47-17.24-17.24s8.62-17.24,17.24-17.24Z"/><path class="cls-2" d="M2.16,185.38v362.13c0,25.87,21.56,49.58,49.58,49.58h495.78c25.87,0,49.58-21.56,49.58-49.58V185.38H2.16ZM200.47,437.58c6.47,6.47,6.47,17.24,0,23.71-6.47,6.47-17.24,6.47-23.71,0l-64.67-64.67c-6.47-6.47-6.47-17.24,0-23.71l64.67-64.67c6.47-6.47,17.24-6.47,23.71,0,6.47,6.47,6.47,17.24,0,23.71l-51.73,51.73,51.73,53.89ZM355.67,303.93l-86.22,172.44c-4.31,8.62-12.93,10.78-21.56,6.47-8.62-4.31-10.78-12.93-6.47-21.56l86.22-172.44c4.31-8.62,12.93-10.78,21.56-6.47,6.47,4.31,10.78,15.09,6.47,21.56ZM480.69,394.47l-64.67,64.67c-6.47,6.47-17.24,6.47-23.71,0-6.47-6.47-6.47-17.24,0-23.71l53.89-53.89-53.89-53.89c-6.47-6.47-6.47-17.24,0-23.71,6.47-6.47,17.24-6.47,23.71,0l64.67,64.67c6.47,10.78,6.47,19.4,0,25.87Z"/></g></svg>