<?xml version="1.0" encoding="UTF-8"?><svg id="Layer_2" xmlns="http://www.w3.org/2000/svg" viewBox="0 0 1106.32 1138.86"><g id="Layer_1-2"><path id="Vector" d="M1008.71,81.34h-130.16c-53.83,0-97.62,43.79-97.62,97.62v130.16c0,53.83,43.79,97.62,97.62,97.62h130.16c53.83,0,97.61-43.79,97.61-97.62v-130.16c0-53.83-43.78-97.62-97.61-97.62Z"/><path id="Vector_2" d="M0,959.9c0,53.83,43.79,97.62,97.62,97.62h130.16c53.83,0,97.62-43.79,97.62-97.62v-130.16c0-53.83-43.79-97.61-97.62-97.61H97.62c-53.83,0-97.62,43.78-97.62,97.61v130.16Z"/><path id="Vector_3" d="M48.81,601.97c0,26.95,21.86,48.81,48.81,48.81s48.81-21.86,48.81-48.81v-325.39c0-44.87,36.48-81.35,81.35-81.35h305.18l-14.3,14.3c-19.06,19.06-19.06,49.95,0,69.02,19.06,19.06,49.94,19.06,69.02,0l97.61-97.62c18.72-18.71,19.17-49.86,0-69.02l-97.61-97.62c-19.07-19.06-49.95-19.06-69.02,0-19.07,19.06-19.06,49.95,0,69.02l14.3,14.3H227.77c-98.7,0-178.96,80.27-178.96,178.97v325.38Z"/><path id="Vector_4" d="M1057.42,862.29v-325.39c0-26.95-21.86-48.81-48.81-48.81s-48.81,21.86-48.81,48.81v325.39c0,44.86-36.48,81.35-81.35,81.35h-305.18l14.31-14.31c19.06-19.06,19.06-49.95,0-69.02-19.07-19.07-49.95-19.06-69.03,0l-97.62,97.62c-18.71,18.71-19.16,49.86,0,69.02l97.62,97.62c19.07,19.06,49.94,19.06,69.03,0,19.06-19.07,19.06-49.95,0-69.02l-14.31-14.31h305.18c98.7,0,178.97-80.26,178.97-178.95Z"/></g></svg>