<?xml version="1.0" encoding="UTF-8"?><svg id="Layer_2" xmlns="http://www.w3.org/2000/svg" viewBox="0 0 1494.96 1275.66"><defs><style>.cls-1{fill:#282f39;}.cls-1,.cls-2{fill-rule:evenodd;}.cls-3{fill:#fff;}.cls-2{fill:none;stroke:#282f39;stroke-miterlimit:22.93;stroke-width:85.04px;}</style></defs><g id="_ÎÓÈ_1"><path class="cls-2" d="M152.45,637.84c0,220.28,119.66,412.61,297.53,515.53"/><path class="cls-2" d="M958.24,81.02c-31.9-12.02-65.28-21.46-99.93-28.02-106.51-20.16-211.76-10.58-307.19,22.9"/><path class="cls-2" d="M1342.85,637.84c0-220.31-119.7-412.67-297.61-515.58"/><path class="cls-1" d="M434.05,82.65h0l41.57,73.96h0c-27.96,15.78-54.56,33.98-79.44,54.43-24.64,20.26-47.64,42.74-68.64,67.29-15.19,17.84-41.96,20-59.81,4.81-17.84-15.19-20-41.97-4.81-59.81,24.26-28.36,50.82-54.33,79.27-77.72,28.85-23.72,59.6-44.77,91.85-62.97Z"/><path class="cls-1" d="M1019.6,1119.11c28-15.79,54.62-34,79.52-54.47,24.66-20.27,47.68-42.78,68.7-67.36,15.19-17.84,41.97-19.99,59.81-4.81,17.84,15.19,20,41.96,4.81,59.81-24.28,28.39-50.86,54.37-79.33,77.78-28.87,23.74-59.65,44.8-91.93,63.01l-41.57-73.96Z"/><path class="cls-2" d="M537.06,1194.63c31.9,12.02,65.28,21.46,99.93,28.02,106.54,20.16,211.83,10.57,307.28-22.93"/><polygon class="cls-1" points="151.38 375.64 302.76 637.84 151.38 637.84 0 637.84 151.38 375.64"/><polygon class="cls-1" points="1343.58 899.47 1494.96 637.27 1343.58 637.27 1192.2 637.27 1343.58 899.47"/><path class="cls-1" d="M811.54,330.35c14.91,2.87,29.74,6.84,44.39,11.95,14.4,5.02,28.55,11.12,42.33,18.32l50.16-39.98c3.2-2.55,7.03-4.3,10.97-4.65,3.98-.36,7.93.64,11.39,3.52l54.33,45.29c3.47,2.88,5.17,6.59,5.54,10.58.36,3.93-.68,8.01-2.62,11.62l-29.66,55.33c9.96,12.27,18.93,25.24,26.89,38.76,8.04,13.66,15.02,27.84,20.89,42.41l62.16,1.57c4.13.1,8.2,1.22,11.42,3.46,3.3,2.29,5.68,5.61,6.48,10.05.04.2.06.4.08.6l12.4,69.02c.81,4.44-.27,8.38-2.54,11.66-2.25,3.23-5.67,5.7-9.49,7.22l-57.44,22.99c-.35,15.86-1.88,31.68-4.6,47.31-2.7,15.47-6.57,30.86-11.66,46.03l46.49,41.04c3.08,2.73,5.49,6.22,6.51,10.02,1.04,3.83.72,7.88-1.53,11.79h.02s-35.15,61.39-35.15,61.39c-.13.23-.27.44-.42.65-2.25,3.53-5.44,5.66-9.06,6.64-3.79,1.03-7.99.72-11.89-.56l-59.75-19.64c-10.51,11.76-21.79,22.6-33.7,32.49-12.09,10.04-24.82,19.09-38.05,27.11l9.48,63.06c.62,4.04.22,8.23-1.44,11.82-1.69,3.65-4.54,6.58-8.77,8.13l-66.39,24.41c-4.23,1.55-8.29,1.17-11.92-.51-3.59-1.66-6.61-4.6-8.77-8.08l-.23-.39-34.24-55.19c-14.94,2.03-30.11,3-45.4,2.89-15.1-.11-30.19-1.29-45.14-3.55l-34.69,56.74c-2.14,3.5-5.15,6.46-8.73,8.15-3.61,1.7-7.66,2.1-11.9.58l-66.54-23.98c-4.25-1.53-7.12-4.44-8.83-8.07-1.68-3.58-2.1-7.76-1.52-11.79l9.72-67.55-1.23-.78c-1.85-1.18-3.57-2.29-5.12-3.32-12.04-8.05-23.29-16.72-33.75-25.93-9.51-8.38-18.45-17.28-26.82-26.65l-65.47,21.97c-3.89,1.31-8.08,1.65-11.88.64-3.87-1.03-7.25-3.33-9.53-7.24l-35.57-61.15c-2.26-3.89-2.59-7.95-1.57-11.81,1.01-3.8,3.38-7.29,6.45-10.03l52.18-46.67c-4.44-13.8-7.92-27.82-10.44-41.97-2.5-14.07-4.05-28.39-4.64-42.86l-65.34-25.66c-3.83-1.5-7.28-3.95-9.55-7.18-2.31-3.27-3.41-7.19-2.65-11.63l12.06-69.7c.77-4.45,3.13-7.78,6.41-10.1,3.21-2.26,7.26-3.4,11.38-3.54l69.84-2.21c3.8-9.53,8.11-18.98,12.93-28.32,5.42-10.48,11.5-20.8,18.25-30.9,2.4-3.6,4.73-6.95,6.99-10.06,1.43-1.98,2.96-4.03,4.57-6.14l-33.15-60.93c-1.98-3.62-3.05-7.7-2.73-11.6.33-3.99,2.01-7.71,5.46-10.63l54.05-45.64c3.45-2.92,7.39-3.96,11.37-3.63,3.9.33,7.75,2.07,11,4.63v-.02s53.49,42.07,53.49,42.07c13.05-7.17,26.55-13.39,40.37-18.63,13.93-5.28,28.22-9.58,42.75-12.86l13.29-65.67c.82-4.04,2.62-7.86,5.4-10.65,2.82-2.84,6.5-4.6,11.02-4.61l70.72-.23c4.5-.01,8.18,1.73,11.02,4.55,2.8,2.78,4.63,6.58,5.47,10.6l13.35,63.82Z"/><circle class="cls-3" cx="750.46" cy="642.32" r="234.36" transform="translate(-234.39 718.79) rotate(-45)"/></g></svg>