<?xml version="1.0" encoding="UTF-8"?><svg id="Layer_2" xmlns="http://www.w3.org/2000/svg" viewBox="0 0 22 26.7"><defs><style>.cls-1{fill:#fff;}</style></defs><g id="Glyph"><path d="M21,22.73v3.77c0,.17-.2.27-.33.16l-2.17-1.73-2.17,1.73c-.13.11-.33.01-.33-.16v-3.77c.74.43,1.58.7,2.5.7s1.76-.26,2.5-.7Z"/><path d="M13.8,18.42c0-2.59,2.11-4.7,4.7-4.7,1.39,0,2.63.62,3.49,1.59V2.8c0-1.55-1.26-2.8-2.8-2.8H2.8C1.26,0,0,1.26,0,2.8v16.39c0,1.55,1.26,2.8,2.8,2.8h12.68c-1.02-.86-1.68-2.13-1.68-3.57Z"/><path d="M18.5,14.92c-1.93,0-3.5,1.57-3.5,3.5s1.57,3.5,3.5,3.5,3.5-1.57,3.5-3.5-1.57-3.5-3.5-3.5ZM19.81,20.45l-1.31-.69-1.31.69.25-1.46-1.06-1.04,1.47-.21.66-1.33.66,1.33,1.47.21-1.06,1.04.25,1.46Z"/><path class="cls-1" d="M6.72,10.13c-.21.14-.45.25-.71.33.27.08.5.19.71.33l1.75,1.28c.11.07.19.16.24.27.05.11.07.23.07.35v1.79l-4.98-3.52v-1.01l4.98-3.52v1.79c0,.13-.02.25-.07.35-.05.11-.13.2-.24.28l-1.75,1.27Z"/><path class="cls-1" d="M17.85,9.97v1.01l-4.98,3.52v-1.79c0-.13.02-.25.07-.35.05-.11.13-.2.24-.27l1.75-1.28c.21-.14.45-.25.71-.33-.27-.08-.5-.19-.71-.33l-1.75-1.27c-.11-.08-.19-.17-.24-.28-.05-.11-.07-.23-.07-.35v-1.79l4.98,3.52Z"/></g></svg>