<?xml version="1.0" encoding="UTF-8"?><svg id="Layer_2" xmlns="http://www.w3.org/2000/svg" viewBox="0 0 56 47.42"><g id="Glyph"><path d="M5.69,29.04h-3.69C.9,29.04,0,29.94,0,31.04v14.38c0,1.1.89,2,2,2h3.68c.86,0,1.57-.69,1.57-1.56h0v-15.25c0-.86-.7-1.56-1.56-1.57Z"/><path d="M29.92,28.91c-2.2-2.32-5.99-1.13-9.06-1.39,0-.02.01-.05.02-.07.94-2.91,1.84-7.1-1.28-9.84-1.57-1.5-2.73-1.64-4.57-.57-.61.36-1.02.99-1.1,1.7-.09,1.39.27,5.2-.35,6.1l-2.1,4.1c-.05.1-.12.2-.19.29-.55.56-1.35.81-2.12.65.14.59.14,16.13,0,16.72h15.29c2.08.06,3.82-1.58,3.88-3.67,0-.3-.02-.6-.08-.89,1.12-.86,1.62-2.29,1.28-3.66,1.48-1.14,1.83-3.22.82-4.79.91-1.49.73-3.39-.44-4.68Z"/><path d="M50.66,0H14.48c-2.94,0-5.33,2.39-5.34,5.33v22.55h.64l2.02-3.95c.08-.16.13-.33.13-.51.04-.68-.12-5.04.14-5.6.33-1.04,1.02-1.93,1.95-2.5.92-.6,2-.94,3.1-.98,1.47.08,2.86.73,3.86,1.82,3.14,2.76,3.04,6.64,2.5,9.35,1.05,0,2.27,0,3.24,0,3.39-.05,6.17,2.67,6.22,6.05,0,0,0,.01,0,.02,0,.68-.13,1.36-.37,2h15.51l6.21,6.22c.4.39,1.04.38,1.42-.02.18-.18.28-.43.29-.68V5.33c0-2.94-2.4-5.33-5.34-5.33ZM23.57,9.79c-.55,0-.99-.46-.99-1.01,0-.54.44-.98.99-.99h20c.55,0,.99.46.99,1.01,0,.54-.44.98-.99.99h-20ZM28.71,17.79c-.55,0-.99-.46-.99-1.01,0-.54.44-.98.99-.99h14.86c.55,0,.99.46.99,1.01,0,.54-.44.98-.99.99h-14.86ZM43.57,25.79h-8.71c-.55,0-1-.46-.99-1.01,0-.55.45-.99.99-.99h8.71c.55,0,.99.46.99,1.01,0,.54-.44.98-.99.99Z"/></g></svg>