<svg id="Glyph" xmlns="http://www.w3.org/2000/svg" viewBox="0 0 64 64"><title>1</title><path d="M9.68994,37.32992H6a2.00592,2.00592,0,0,0-2,2V53.70975a1.99942,1.99942,0,0,0,2,1.99993H9.67993a1.56449,1.56449,0,0,0,1.56994-1.55993V38.89993A1.57368,1.57368,0,0,0,9.68994,37.32992Z"/><path d="M33.91961,37.2c-2.19543-2.31537-5.98639-1.126-9.05987-1.39026a.31269.31269,0,0,1,.02-.06976c.93994-2.91,1.8399-7.09986-1.28-9.83991-1.57-1.49994-2.73-1.63989-4.56989-.56994a2.2686,2.2686,0,0,0-1.1001,1.69995c-.08966,1.39044.27259,5.20257-.34985,6.1l-2.1,4.09992a1.80594,1.80594,0,0,1-.19.29,2.3179,2.3179,0,0,1-2.12.65c.13861.59033.1408,16.13483.00018,16.71985H28.45971a3.775,3.775,0,0,0,3.79987-4.56,3.53547,3.53547,0,0,0,1.28-3.65991,3.58975,3.58975,0,0,0,.82-4.78992A3.9268,3.9268,0,0,0,33.91961,37.2Z"/><path d="M54.6593,8.29031H18.47979a5.34323,5.34323,0,0,0-5.3399,5.33V36.17h.64l2.02-3.95a1.10283,1.10283,0,0,0,.13-.51c.03942-.67835-.12476-5.03851.13989-5.59985a4.50931,4.50931,0,0,1,1.95007-2.5,6.038,6.038,0,0,1,3.09992-.98,5.67382,5.67382,0,0,1,3.86,1.82c3.13995,2.75989,3.04,6.63983,2.49994,9.34986,1.0528-.00031,2.27271-.00251,3.23993.01a6.1379,6.1379,0,0,1,6.22,6.06994,5.91409,5.91409,0,0,1-.37,1.99994H52.0794l6.2099,6.21991a1.00682,1.00682,0,0,0,1.71-.70007V13.62027A5.34324,5.34324,0,0,0,54.6593,8.29031ZM27.5697,18.08017a1.00008,1.00008,0,0,1,.00006-1.99994H47.56945a1.00008,1.00008,0,0,1,0,1.99994Zm5.14,7.99988a1.00008,1.00008,0,0,1,.00006-1.99994H47.56945a1.00008,1.00008,0,0,1,0,1.99994ZM47.56945,34.08h-8.7099a1.00016,1.00016,0,0,1,.00006-2h8.70984A1.00011,1.00011,0,0,1,47.56945,34.08Z"/></svg>