<?xml version="1.0" encoding="UTF-8"?><svg id="Layer_2" xmlns="http://www.w3.org/2000/svg" viewBox="0 0 180 169.8"><defs><style>.cls-1{fill:#fff;}.cls-1,.cls-2{fill-rule:evenodd;}.cls-2{fill:#b3b3b3;}</style></defs><g id="Layer_1-2"><path class="cls-2" d="M152.73,44.68v64.42c0,8.82-7.22,16.03-16.03,16.03H27.27V60.71c0-8.82,7.22-16.03,16.03-16.03h109.42Z"/><path class="cls-2" d="M19.09,125.13h-3.06c-8.82,0-16.03-7.22-16.03-16.03V40.25c0-12.58,10.27-22.85,22.85-22.85h.68V5.47c0-2.07,1.07-3.85,2.91-4.82,1.82-.96,3.89-.85,5.59.3l24.11,16.45h80.56c8.82,0,16.03,7.22,16.03,16.03v3.06H43.31c-13.33,0-24.21,10.88-24.21,24.21v64.42h0Z"/><path class="cls-2" d="M160.91,44.68h3.06c8.82,0,16.03,7.22,16.03,16.03v68.84c0,12.58-10.27,22.85-22.85,22.85h-.68v11.93c0,2.07-1.07,3.85-2.91,4.82-1.82.96-3.88.85-5.59-.3l-24.11-16.45H43.31c-8.82,0-16.03-7.22-16.03-16.03v-3.06h109.42c13.33,0,24.21-10.88,24.21-24.21V44.68h0Z"/><path class="cls-1" d="M90,95.1h0c-5.61,0-10.2-4.59-10.2-10.2h0c0-5.61,4.59-10.2,10.2-10.2h0c5.61,0,10.2,4.59,10.2,10.2h0c0,5.61-4.59,10.2-10.2,10.2h0Z"/><path class="cls-1" d="M57.6,95.1h0c5.61,0,10.2-4.59,10.2-10.2h0c0-5.61-4.59-10.2-10.2-10.2h0c-5.61,0-10.2,4.59-10.2,10.2h0c0,5.61,4.59,10.2,10.2,10.2h0Z"/><path class="cls-1" d="M122.4,95.1h0c5.61,0,10.2-4.59,10.2-10.2h0c0-5.61-4.59-10.2-10.2-10.2h0c-5.61,0-10.2,4.59-10.2,10.2h0c0,5.61,4.59,10.2,10.2,10.2h0Z"/></g></svg>