<svg preserveAspectRatio="none" width="100%" height="100%" overflow="visible" style="display: block;" viewBox="0 0 16.2 16.2" fill="none" xmlns="http://www.w3.org/2000/svg">
<g id="Icon">
<path id="Vector" d="M10.5251 14.95V12.25C10.619 11.4044 10.3765 10.5558 9.85006 9.88751C11.8751 9.88751 13.9001 8.53751 13.9001 6.17501C13.9541 5.33126 13.7178 4.50101 13.2251 3.81251C13.4141 3.03626 13.4141 2.22626 13.2251 1.45001C13.2251 1.45001 12.5501 1.45001 11.2001 2.46251C9.41806 2.12501 7.58206 2.12501 5.80006 2.46251C4.45006 1.45001 3.77506 1.45001 3.77506 1.45001C3.57256 2.22626 3.57256 3.03626 3.77506 3.81251C3.28357 4.49823 3.04502 5.33314 3.10006 6.17501C3.10006 8.53751 5.12506 9.88751 7.15006 9.88751C6.88681 10.2183 6.69106 10.5963 6.57631 11.0013C6.46156 11.4063 6.42781 11.8315 6.47506 12.25V14.95" stroke="var(--stroke-0, white)" stroke-width="1.35" stroke-linecap="round" stroke-linejoin="round"/>
<path id="Vector_2" d="M6.47476 12.25C3.43051 13.6 3.09976 10.9 1.74976 10.9" stroke="var(--stroke-0, white)" stroke-width="1.35" stroke-linecap="round" stroke-linejoin="round"/>
</g>
</svg>
