<svg preserveAspectRatio="none" width="100%" height="100%" overflow="visible" style="display: block;" viewBox="0 0 16.2 16.2" fill="none" xmlns="http://www.w3.org/2000/svg">
<g id="Icon" clip-path="url(#clip0_0_32)">
<path id="Vector" d="M3.7749 3.81251C3.7749 3.18594 4.02381 2.58503 4.46686 2.14197C4.90992 1.69892 5.51083 1.45001 6.1374 1.45001H8.4999V6.17501H6.1374C5.51083 6.17501 4.90992 5.92611 4.46686 5.48305C4.02381 5.04 3.7749 4.43909 3.7749 3.81251Z" stroke="var(--stroke-0, #9810FA)" stroke-width="1.35" stroke-linecap="round" stroke-linejoin="round"/>
<path id="Vector_2" d="M8.49976 1.45001H10.8623C11.1725 1.45001 11.4797 1.51112 11.7663 1.62985C12.053 1.74857 12.3134 1.92259 12.5328 2.14197C12.7522 2.36135 12.9262 2.62179 13.0449 2.90842C13.1636 3.19505 13.2248 3.50226 13.2248 3.81251C13.2248 4.12276 13.1636 4.42997 13.0449 4.7166C12.9262 5.00323 12.7522 5.26367 12.5328 5.48305C12.3134 5.70243 12.053 5.87645 11.7663 5.99518C11.4797 6.1139 11.1725 6.17501 10.8623 6.17501H8.49976V1.45001Z" stroke="var(--stroke-0, #9810FA)" stroke-width="1.35" stroke-linecap="round" stroke-linejoin="round"/>
<path id="Vector_3" d="M8.49976 8.53749C8.49976 8.22724 8.56086 7.92003 8.67959 7.6334C8.79832 7.34677 8.97234 7.08633 9.19172 6.86695C9.41109 6.64757 9.67153 6.47355 9.95817 6.35482C10.2448 6.2361 10.552 6.17499 10.8623 6.17499C11.1725 6.17499 11.4797 6.2361 11.7663 6.35482C12.053 6.47355 12.3134 6.64757 12.5328 6.86695C12.7522 7.08633 12.9262 7.34677 13.0449 7.6334C13.1636 7.92003 13.2248 8.22724 13.2248 8.53749C13.2248 8.84774 13.1636 9.15495 13.0449 9.44158C12.9262 9.72821 12.7522 9.98865 12.5328 10.208C12.3134 10.4274 12.053 10.6014 11.7663 10.7202C11.4797 10.8389 11.1725 10.9 10.8623 10.9C10.552 10.9 10.2448 10.8389 9.95817 10.7202C9.67153 10.6014 9.41109 10.4274 9.19172 10.208C8.97234 9.98865 8.79832 9.72821 8.67959 9.44158C8.56086 9.15495 8.49976 8.84774 8.49976 8.53749Z" stroke="var(--stroke-0, #9810FA)" stroke-width="1.35" stroke-linecap="round" stroke-linejoin="round"/>
<path id="Vector_4" d="M3.7749 13.2625C3.7749 12.636 4.02381 12.035 4.46686 11.592C4.90992 11.1489 5.51083 10.9 6.1374 10.9H8.4999V13.2625C8.4999 13.8891 8.251 14.49 7.80794 14.9331C7.36489 15.3761 6.76398 15.625 6.1374 15.625C5.51083 15.625 4.90992 15.3761 4.46686 14.9331C4.02381 14.49 3.7749 13.8891 3.7749 13.2625Z" stroke="var(--stroke-0, #9810FA)" stroke-width="1.35" stroke-linecap="round" stroke-linejoin="round"/>
<path id="Vector_5" d="M3.7749 8.53749C3.7749 7.91091 4.02381 7.31 4.46686 6.86695C4.90992 6.42389 5.51083 6.17499 6.1374 6.17499H8.4999V10.9H6.1374C5.51083 10.9 4.90992 10.6511 4.46686 10.208C4.02381 9.76497 3.7749 9.16406 3.7749 8.53749Z" stroke="var(--stroke-0, #9810FA)" stroke-width="1.35" stroke-linecap="round" stroke-linejoin="round"/>
</g>
<defs>
<clipPath id="clip0_0_32">
<rect width="16.2" height="16.2" fill="white"/>
</clipPath>
</defs>
</svg>
